<?xml version="1.0" encoding="utf-8"?>
<!-- Generator: Adobe Illustrator 19.2.1, SVG Export Plug-In . SVG Version: 6.00 Build 0)  -->
<svg version="1.1" id="图层_1" xmlns="http://www.w3.org/2000/svg" xmlns:xlink="http://www.w3.org/1999/xlink" x="0px" y="0px"
	 viewBox="0 0 1200 440" style="enable-background:new 0 0 1200 440;" xml:space="preserve">
<style type="text/css">
	.st0{fill:#231815;}
</style>
<g>
	<g>
		<path class="st0" d="M296.2,31.6h-76.1L14.3,258.2v61.6h198.2v88.9l83.6,0.7v-89.6h52.7v-69.5h-52.7V31.6z M212.6,250.3h-98.5
			l98.5-107.3V250.3z M746,83c-40.4-37.3-89.1-56-146.2-56c-57.5,0-106.4,18.7-146.5,56c-40.4,37.8-60.6,83.6-60.6,137.6
			c0,53.8,20.2,99.3,60.6,136.7c40.2,37.8,89,56.6,146.5,56.6c57.1,0,105.8-18.9,146.2-56.6c40.6-37.3,60.9-82.9,60.9-136.7
			C806.9,166.6,786.6,120.7,746,83z M687.4,304.9c-24.4,23.7-53.6,35.6-87.6,35.6c-34.7,0-63.9-11.9-87.6-35.6
			c-23.9-23.1-35.9-50.7-35.9-83v-1.3c0-32.9,11.9-61.2,35.7-84.8c23.8-23.6,53.1-35.4,87.8-35.4c33.6,0,62.6,11.7,86.9,35.2
			c23.9,23.7,36.1,52,36.6,85C723.3,253.3,711.3,281.4,687.4,304.9z M1132.6,250.3V31.6h-76.1L850.7,258.2v61.6H1049v88.9l83.6,0.7
			v-89.6h52.7v-69.5H1132.6z M1049,250.3h-98.5l98.5-107.3V250.3z"/>
	</g>
</g>
</svg>
