<?xml version="1.0" encoding="utf-8"?>
<!-- Generator: Adobe Illustrator 16.0.0, SVG Export Plug-In . SVG Version: 6.00 Build 0)  -->
<!DOCTYPE svg PUBLIC "-//W3C//DTD SVG 1.1//EN" "http://www.w3.org/Graphics/SVG/1.1/DTD/svg11.dtd">
<svg version="1.1" id="Capa_1" xmlns="http://www.w3.org/2000/svg" xmlns:xlink="http://www.w3.org/1999/xlink" x="0px" y="0px"
	 width="948.326px" height="948.326px" viewBox="0 0 948.326 948.326" enable-background="new 0 0 948.326 948.326"
	 xml:space="preserve">
<g>
	<path fill="#FFFFFF" d="M43.687,942.926l266.9-186.399l-59.2-59.199l-0.1-0.102l-0.1-0.1l0,0l0,0l-59.5-59.5L5.187,904.525
		C-12.414,929.826,18.386,960.626,43.687,942.926z"/>
	<path fill="#FFFFFF" d="M97.386,444.326l135,135l68.299,68.3l0.102,0.1l0.1,0.102l68,68l135.299,135.3
		c6.4,6.399,14.602,9.399,22.7,9.399c11.4,0,22.602-6,28.5-17.101c44.602-83.6,124.4-255.1,286.4-434l21.2,21.2
		c1.198,1.2,2.398,2.3,3.698,3.399c9.2,7.5,20.4,11.301,31.602,11.301c1.898,0,3.898-0.102,5.8-0.301c10.8-1.301,21.3-6,29.6-14.301
		c14.4-14.398,18.2-35.5,11.302-53.398c-2.4-6.3-6.2-12.2-11.302-17.3l-19.6-19.6l-306-306l-19.6-19.6
		c-5.102-5.1-11-8.8-17.302-11.3c-17.898-6.9-39-3.2-53.398,11.3c-8.3,8.3-13,18.8-14.3,29.6c-1.5,13.1,2.1,26.7,10.898,37.4
		c1,1.3,2.2,2.5,3.4,3.7l21.2,21.2c-178.8,161.9-350.4,241.7-433.9,286.3C85.986,403.226,82.086,428.926,97.386,444.326z"/>
</g>
</svg>
